<svg width="28" height="29" viewBox="0 0 28 29" fill="none" xmlns="http://www.w3.org/2000/svg">
<g id="ArrowRight">
<path id="Vector" d="M24.2441 15.1191L16.3691 22.9941C16.2049 23.1582 15.9822 23.2505 15.75 23.2505C15.5178 23.2505 15.2951 23.1582 15.1309 22.9941C14.9668 22.8299 14.8745 22.6072 14.8745 22.375C14.8745 22.1428 14.9668 21.9201 15.1309 21.7559L21.513 15.375H4.375C4.14294 15.375 3.92038 15.2828 3.75628 15.1187C3.59219 14.9546 3.5 14.7321 3.5 14.5C3.5 14.2679 3.59219 14.0454 3.75628 13.8813C3.92038 13.7172 4.14294 13.625 4.375 13.625H21.513L15.1309 7.24406C14.9668 7.07988 14.8745 6.85719 14.8745 6.625C14.8745 6.3928 14.9668 6.17012 15.1309 6.00594C15.2951 5.84175 15.5178 5.74951 15.75 5.74951C15.9822 5.74951 16.2049 5.84175 16.3691 6.00594L24.2441 13.8809C24.3254 13.9622 24.39 14.0587 24.434 14.1649C24.478 14.2711 24.5007 14.385 24.5007 14.5C24.5007 14.615 24.478 14.7288 24.434 14.8351C24.39 14.9413 24.3254 15.0378 24.2441 15.1191Z" fill="white"/>
</g>
</svg>
