<svg width="61" height="61" viewBox="0 0 61 61" fill="none" xmlns="http://www.w3.org/2000/svg">
<g id="Brain">
<path id="Vector" d="M58.6248 29.5624C58.6223 27.0788 57.9166 24.6467 56.5893 22.5475C55.262 20.4483 53.3674 18.7679 51.1248 17.7007V17.3749C51.1226 14.959 50.3428 12.608 48.9007 10.6697C47.4587 8.73145 45.4309 7.30887 43.1176 6.6125C40.8042 5.91613 38.3281 5.98295 36.0557 6.80309C33.7833 7.62322 31.8352 9.1531 30.4998 11.1663C29.1644 9.1531 27.2163 7.62322 24.9439 6.80309C22.6715 5.98295 20.1954 5.91613 17.882 6.6125C15.5687 7.30887 13.5409 8.73145 12.0989 10.6697C10.6568 12.608 9.87697 14.959 9.8748 17.3749V17.7007C7.63028 18.765 5.73386 20.4444 4.40592 22.5437C3.07798 24.643 2.37305 27.076 2.37305 29.5601C2.37305 32.0442 3.07798 34.4772 4.40592 36.5765C5.73386 38.6758 7.63028 40.3552 9.8748 41.4195V41.7499C9.87697 44.1658 10.6568 46.5169 12.0989 48.4551C13.5409 50.3934 15.5687 51.816 17.882 52.5124C20.1954 53.2088 22.6715 53.1419 24.9439 52.3218C27.2163 51.5017 29.1644 49.9718 30.4998 47.9585C31.8352 49.9718 33.7833 51.5017 36.0557 52.3218C38.3281 53.1419 40.8042 53.2088 43.1176 52.5124C45.4309 51.816 47.4587 50.3934 48.9007 48.4551C50.3428 46.5169 51.1226 44.1658 51.1248 41.7499V41.4195C53.3671 40.3531 55.2615 38.6735 56.5888 36.5751C57.9161 34.4767 58.622 32.0454 58.6248 29.5624ZM21.1248 49.2499C19.2755 49.2497 17.4914 48.5662 16.1153 47.3307C14.7392 46.0952 13.8681 44.3948 13.6693 42.5562C14.2757 42.6427 14.8873 42.6866 15.4998 42.6874H17.3748C17.8721 42.6874 18.349 42.4899 18.7006 42.1383C19.0523 41.7866 19.2498 41.3097 19.2498 40.8124C19.2498 40.3152 19.0523 39.8382 18.7006 39.4866C18.349 39.135 17.8721 38.9374 17.3748 38.9374H15.4998C13.2863 38.94 11.1432 38.1593 9.45007 36.7335C7.75691 35.3077 6.62288 33.3287 6.24874 31.147C5.8746 28.9654 6.28449 26.7217 7.40584 24.8132C8.52719 22.9047 10.2877 21.4545 12.3756 20.7195C12.7409 20.5901 13.0572 20.3508 13.2809 20.0343C13.5046 19.7178 13.6247 19.3398 13.6248 18.9523V17.3749C13.6248 15.3858 14.415 13.4782 15.8215 12.0716C17.228 10.6651 19.1357 9.87494 21.1248 9.87494C23.1139 9.87494 25.0216 10.6651 26.4281 12.0716C27.8346 13.4782 28.6248 15.3858 28.6248 17.3749V33.3734C26.5659 31.5215 23.894 30.4979 21.1248 30.4999C20.6275 30.4999 20.1506 30.6975 19.799 31.0491C19.4473 31.4007 19.2498 31.8777 19.2498 32.3749C19.2498 32.8722 19.4473 33.3491 19.799 33.7008C20.1506 34.0524 20.6275 34.2499 21.1248 34.2499C23.1139 34.2499 25.0216 35.0401 26.4281 36.4466C27.8346 37.8532 28.6248 39.7608 28.6248 41.7499C28.6248 43.7391 27.8346 45.6467 26.4281 47.0532C25.0216 48.4598 23.1139 49.2499 21.1248 49.2499ZM45.4998 38.9374H43.6248C43.1275 38.9374 42.6506 39.135 42.299 39.4866C41.9473 39.8382 41.7498 40.3152 41.7498 40.8124C41.7498 41.3097 41.9473 41.7866 42.299 42.1383C42.6506 42.4899 43.1275 42.6874 43.6248 42.6874H45.4998C46.1123 42.6866 46.7239 42.6427 47.3303 42.5562C47.1745 43.9968 46.6047 45.3615 45.6899 46.4852C44.775 47.6089 43.5542 48.4435 42.1751 48.8881C40.796 49.3328 39.3176 49.3684 37.9187 48.9906C36.5198 48.6129 35.2602 47.838 34.2923 46.7597C33.3244 45.6813 32.6896 44.3457 32.4647 42.9142C32.2397 41.4828 32.4343 40.0168 33.0248 38.6936C33.6153 37.3703 34.5764 36.2465 35.7921 35.4579C37.0077 34.6693 38.4258 34.2497 39.8748 34.2499C40.3721 34.2499 40.849 34.0524 41.2006 33.7008C41.5523 33.3491 41.7498 32.8722 41.7498 32.3749C41.7498 31.8777 41.5523 31.4007 41.2006 31.0491C40.849 30.6975 40.3721 30.4999 39.8748 30.4999C37.1056 30.4979 34.4338 31.5215 32.3748 33.3734V17.3749C32.3748 15.3858 33.165 13.4782 34.5715 12.0716C35.978 10.6651 37.8857 9.87494 39.8748 9.87494C41.8639 9.87494 43.7716 10.6651 45.1781 12.0716C46.5846 13.4782 47.3748 15.3858 47.3748 17.3749V18.9523C47.3749 19.3398 47.495 19.7178 47.7187 20.0343C47.9424 20.3508 48.2587 20.5901 48.624 20.7195C50.7119 21.4545 52.4724 22.9047 53.5938 24.8132C54.7151 26.7217 55.125 28.9654 54.7509 31.147C54.3767 33.3287 53.2427 35.3077 51.5495 36.7335C49.8564 38.1593 47.7133 38.94 45.4998 38.9374ZM49.2498 26.7499C49.2498 27.2472 49.0523 27.7241 48.7006 28.0758C48.349 28.4274 47.8721 28.6249 47.3748 28.6249H46.4373C44.1995 28.6249 42.0534 27.736 40.4711 26.1537C38.8888 24.5713 37.9998 22.4252 37.9998 20.1874V19.2499C37.9998 18.7527 38.1973 18.2757 38.549 17.9241C38.9006 17.5725 39.3775 17.3749 39.8748 17.3749C40.3721 17.3749 40.849 17.5725 41.2006 17.9241C41.5523 18.2757 41.7498 18.7527 41.7498 19.2499V20.1874C41.7498 21.4306 42.2437 22.6229 43.1227 23.502C44.0018 24.3811 45.1941 24.8749 46.4373 24.8749H47.3748C47.8721 24.8749 48.349 25.0725 48.7006 25.4241C49.0523 25.7757 49.2498 26.2527 49.2498 26.7499ZM14.5623 28.6249H13.6248C13.1275 28.6249 12.6506 28.4274 12.299 28.0758C11.9473 27.7241 11.7498 27.2472 11.7498 26.7499C11.7498 26.2527 11.9473 25.7757 12.299 25.4241C12.6506 25.0725 13.1275 24.8749 13.6248 24.8749H14.5623C15.8055 24.8749 16.9978 24.3811 17.8769 23.502C18.7559 22.6229 19.2498 21.4306 19.2498 20.1874V19.2499C19.2498 18.7527 19.4473 18.2757 19.799 17.9241C20.1506 17.5725 20.6275 17.3749 21.1248 17.3749C21.6221 17.3749 22.099 17.5725 22.4506 17.9241C22.8023 18.2757 22.9998 18.7527 22.9998 19.2499V20.1874C22.9998 22.4252 22.1109 24.5713 20.5285 26.1537C18.9462 27.736 16.8001 28.6249 14.5623 28.6249Z" fill="#FF780F"/>
</g>
</svg>
