<svg width="50" height="50" viewBox="0 0 50 50" fill="none" xmlns="http://www.w3.org/2000/svg">
<g id="CrownSimple">
<path id="Vector" d="M47.6243 14.8808C47.2718 14.5735 46.836 14.3779 46.3721 14.3187C45.9082 14.2596 45.4372 14.3397 45.0189 14.5488L35.2122 19.4316L27.0247 5.832C26.8142 5.48303 26.5172 5.19436 26.1623 4.99397C25.8075 4.79359 25.4068 4.68829 24.9993 4.68829C24.5918 4.68829 24.1912 4.79359 23.8363 4.99397C23.4815 5.19436 23.1844 5.48303 22.9739 5.832L14.7864 19.4375L4.9837 14.5547C4.56639 14.3474 4.09717 14.268 3.63492 14.3265C3.17267 14.3849 2.73798 14.5786 2.3854 14.8832C2.03282 15.1878 1.77806 15.5898 1.65308 16.0386C1.5281 16.4875 1.53848 16.9632 1.68291 17.4062L8.90948 39.5468C8.98213 39.7693 9.10382 39.9725 9.26556 40.1416C9.42729 40.3108 9.62494 40.4414 9.84392 40.5239C10.0629 40.6063 10.2976 40.6386 10.5307 40.6182C10.7638 40.5979 10.9894 40.5254 11.1907 40.4062C11.2396 40.3769 16.2337 37.5 24.9993 37.5C33.7649 37.5 38.7591 40.3769 38.804 40.4043C39.0054 40.5246 39.2314 40.5981 39.4651 40.6191C39.6988 40.6402 39.9342 40.6084 40.1539 40.526C40.3736 40.4436 40.572 40.3129 40.7342 40.1433C40.8965 39.9738 41.0184 39.77 41.0911 39.5468L48.3177 17.4121C48.4663 16.969 48.4797 16.4917 48.3562 16.0409C48.2327 15.5902 47.978 15.1864 47.6243 14.8808ZM38.6712 36.8808C36.3274 35.8867 31.6556 34.375 24.9993 34.375C18.3431 34.375 13.6712 35.8867 11.3274 36.8808L5.21612 18.164L14.0189 22.5527C14.5517 22.8155 15.1636 22.8692 15.734 22.7032C16.3045 22.5373 16.7921 22.1638 17.1009 21.6562L24.9993 8.52731L32.8978 21.6523C33.2065 22.1594 33.6938 22.5326 34.2638 22.6985C34.8338 22.8644 35.4452 22.811 35.9778 22.5488L44.7825 18.164L38.6712 36.8808Z" fill="#FF780F"/>
</g>
</svg>
