<svg width="50" height="50" viewBox="0 0 50 50" fill="none" xmlns="http://www.w3.org/2000/svg">
<g id="FlyingSaucer">
<path id="Vector" d="M35.8574 41.6934C35.9885 42.0865 35.958 42.5157 35.7726 42.8863C35.5873 43.257 35.2623 43.5389 34.8691 43.6699C34.476 43.801 34.0469 43.7705 33.6762 43.5852C33.3055 43.3998 33.0236 43.0748 32.8926 42.6817L31.3301 37.9942C31.2652 37.7995 31.2393 37.5939 31.2538 37.3893C31.2684 37.1846 31.3231 36.9847 31.4149 36.8012C31.5066 36.6177 31.6337 36.454 31.7887 36.3195C31.9437 36.1851 32.1237 36.0825 32.3184 36.0176C32.513 35.9527 32.7186 35.9268 32.9233 35.9413C33.128 35.9559 33.3278 36.0106 33.5113 36.1024C33.6949 36.1942 33.8585 36.3212 33.993 36.4762C34.1274 36.6312 34.23 36.8112 34.2949 37.0059L35.8574 41.6934ZM25 35.9375C24.5856 35.9375 24.1882 36.1021 23.8951 36.3952C23.6021 36.6882 23.4375 37.0856 23.4375 37.5V43.75C23.4375 44.1644 23.6021 44.5619 23.8951 44.8549C24.1882 45.1479 24.5856 45.3125 25 45.3125C25.4144 45.3125 25.8118 45.1479 26.1049 44.8549C26.3979 44.5619 26.5625 44.1644 26.5625 43.75V37.5C26.5625 37.0856 26.3979 36.6882 26.1049 36.3952C25.8118 36.1021 25.4144 35.9375 25 35.9375ZM17.6816 36.0176C17.487 35.9527 17.2814 35.9268 17.0767 35.9413C16.872 35.9559 16.6722 36.0106 16.4887 36.1023C16.3051 36.1941 16.1414 36.3211 16.007 36.4762C15.8725 36.6312 15.77 36.8112 15.7051 37.0059L14.1426 41.6934C14.0115 42.0865 14.042 42.5157 14.2274 42.8863C14.4127 43.257 14.7377 43.5389 15.1309 43.6699C15.524 43.801 15.9531 43.7705 16.3238 43.5852C16.6945 43.3998 16.9764 43.0748 17.1074 42.6817L18.6699 37.9942C18.7348 37.7995 18.7608 37.5939 18.7462 37.3892C18.7317 37.1846 18.677 36.9847 18.5852 36.8012C18.4934 36.6176 18.3664 36.454 18.2113 36.3195C18.0563 36.1851 17.8763 36.0825 17.6816 36.0176ZM48.4375 21.875C48.4375 25.043 45.8262 27.9082 41.084 29.9395C36.7617 31.793 31.0547 32.8125 25 32.8125C18.9453 32.8125 13.2383 31.793 8.91602 29.9395C4.17383 27.9082 1.5625 25.043 1.5625 21.875C1.5625 20.2403 2.2793 17.8145 5.69727 15.5274C7.91797 14.041 10.959 12.8399 14.5215 12.041C15.5149 10.467 16.8492 9.13622 18.4258 8.14686C20.0024 7.1575 21.7811 6.53486 23.6305 6.32489C25.4799 6.11492 27.3529 6.32298 29.1111 6.93372C30.8694 7.54447 32.468 8.54229 33.7891 9.85354C34.4629 10.5203 35.0597 11.2606 35.5684 12.0606C43.6387 13.8848 48.4375 17.5274 48.4375 21.875ZM15.625 18.9121V19.4981C15.623 19.8491 15.7404 20.1903 15.958 20.4657C16.1756 20.7411 16.4804 20.9344 16.8223 21.0137C19.5074 21.6057 22.2505 21.8946 25 21.875C27.748 21.8971 30.4897 21.6108 33.1738 21.0215C33.5163 20.9426 33.8217 20.7496 34.04 20.4742C34.2583 20.1988 34.3764 19.8573 34.375 19.5059V18.75C34.3751 17.5083 34.1285 16.2789 33.6496 15.1333C33.1707 13.9876 32.4689 12.9485 31.5851 12.0763C30.7012 11.2041 29.653 10.5162 28.5011 10.0525C27.3492 9.58873 26.1166 9.35846 24.875 9.37502C19.7754 9.44143 15.625 13.7207 15.625 18.9121ZM45.3125 21.875C45.3125 19.5899 42.0645 17.209 37.1289 15.7051C37.3758 16.7012 37.5004 17.7237 37.5 18.75V19.5156C37.5016 20.5729 37.1436 21.5993 36.4849 22.4262C35.8262 23.2532 34.9058 23.8316 33.875 24.0664C30.9609 24.7089 27.984 25.0221 25 25C22.0161 25.0219 19.0391 24.7087 16.125 24.0664C15.0942 23.8316 14.1738 23.2532 13.5151 22.4262C12.8564 21.5993 12.4984 20.5729 12.5 19.5156V18.918C12.5003 17.8291 12.6401 16.7448 12.916 15.6914C7.95312 17.1875 4.6875 19.5801 4.6875 21.875C4.6875 25.5703 13.0293 29.6875 25 29.6875C36.9707 29.6875 45.3125 25.5703 45.3125 21.875Z" fill="#FF780F"/>
</g>
</svg>
