<svg width="30" height="30" viewBox="0 0 30 30" fill="none" xmlns="http://www.w3.org/2000/svg">
<g id="MapTrifold">
<path id="Vector" d="M26.8266 5.82342C26.7143 5.73592 26.5835 5.67514 26.4442 5.6457C26.3049 5.61626 26.1608 5.61892 26.0227 5.6535L18.859 7.44412L11.6695 3.84881C11.4692 3.7489 11.2398 3.72396 11.0227 3.7785L3.52266 5.6535C3.31984 5.7042 3.13978 5.82123 3.01111 5.986C2.88244 6.15077 2.81253 6.35382 2.8125 6.56287V23.4379C2.81252 23.5803 2.84501 23.7209 2.90749 23.8489C2.96997 23.9769 3.0608 24.089 3.17309 24.1767C3.28538 24.2644 3.41617 24.3253 3.55553 24.3548C3.69488 24.3844 3.83914 24.3818 3.97734 24.3472L11.141 22.5566L18.3305 26.1519C18.461 26.2163 18.6045 26.25 18.75 26.2504C18.8266 26.2503 18.903 26.2409 18.9773 26.2222L26.4773 24.3472C26.6802 24.2966 26.8602 24.1795 26.9889 24.0147C27.1176 23.85 27.1875 23.6469 27.1875 23.4379V6.56287C27.1875 6.42029 27.155 6.27957 27.0925 6.15143C27.0299 6.0233 26.939 5.91111 26.8266 5.82342ZM12.1875 6.20428L17.8125 9.01678V23.7965L12.1875 20.984V6.20428ZM4.6875 7.2953L10.3125 5.88905V20.8305L4.6875 22.2367V7.2953ZM25.3125 22.7055L19.6875 24.1117V9.1703L25.3125 7.76405V22.7055Z" fill="white"/>
</g>
</svg>
