<svg width="40" height="40" viewBox="0 0 40 40" fill="none" xmlns="http://www.w3.org/2000/svg">
<g id="PhoneCall">
<path id="Vector" d="M23.7922 5.92649C23.8346 5.76785 23.9079 5.61913 24.0078 5.48882C24.1078 5.35851 24.2324 5.24917 24.3746 5.16704C24.5168 5.08491 24.6738 5.03161 24.8366 5.01017C24.9994 4.98874 25.1648 4.99959 25.3235 5.04212C27.6407 5.64672 29.755 6.85812 31.4484 8.55155C33.1418 10.245 34.3532 12.3592 34.9578 14.6765C35.0004 14.8351 35.0112 15.0005 34.9898 15.1634C34.9683 15.3262 34.915 15.4832 34.8329 15.6254C34.7508 15.7676 34.6414 15.8922 34.5111 15.9921C34.3808 16.092 34.2321 16.1653 34.0735 16.2077C33.9679 16.2355 33.8592 16.2497 33.75 16.2499C33.4746 16.2499 33.2068 16.1589 32.9884 15.9911C32.77 15.8233 32.6131 15.588 32.5422 15.3218C32.0491 13.4301 31.0604 11.7042 29.6781 10.3218C28.2958 8.93952 26.5698 7.95085 24.6781 7.45774C24.5194 7.41548 24.3705 7.34232 24.24 7.24247C24.1095 7.14261 24 7.01801 23.9177 6.87579C23.8354 6.73357 23.782 6.57653 23.7605 6.41364C23.7389 6.25074 23.7497 6.08521 23.7922 5.92649ZM23.4281 12.4577C25.5828 13.0327 26.9672 14.4171 27.5422 16.5718C27.6131 16.838 27.77 17.0733 27.9884 17.2411C28.2068 17.4089 28.4746 17.4999 28.75 17.4999C28.8592 17.4997 28.9679 17.4855 29.0735 17.4577C29.2321 17.4153 29.3808 17.342 29.5111 17.2421C29.6414 17.1422 29.7508 17.0176 29.8329 16.8754C29.915 16.7332 29.9683 16.5762 29.9898 16.4134C30.0112 16.2505 30.0004 16.0851 29.9578 15.9265C29.1578 12.9327 27.0672 10.8421 24.0735 10.0421C23.9148 9.99974 23.7494 9.98903 23.5867 10.0106C23.4239 10.0321 23.267 10.0855 23.1249 10.1677C22.9828 10.2499 22.8582 10.3593 22.7584 10.4896C22.6586 10.6199 22.5854 10.7687 22.543 10.9273C22.5006 11.0859 22.4899 11.2513 22.5114 11.414C22.533 11.5768 22.5864 11.7337 22.6686 11.8758C22.7508 12.0179 22.8602 12.1425 22.9905 12.2423C23.1208 12.3422 23.2695 12.4154 23.4281 12.4577ZM36.2313 27.3562C35.9527 29.4734 34.9129 31.4168 33.3061 32.8235C31.6994 34.2301 29.6355 35.0038 27.5 34.9999C15.0938 34.9999 5.00001 24.9062 5.00001 12.4999C4.99619 10.3644 5.76984 8.30059 7.17647 6.69383C8.58311 5.08707 10.5265 4.04728 12.6438 3.76868C13.1792 3.7033 13.7213 3.81284 14.1894 4.08093C14.6574 4.34901 15.0262 4.76128 15.2406 5.25618L18.5406 12.6234V12.6421C18.7048 13.0209 18.7727 13.4346 18.738 13.846C18.7034 14.2574 18.5674 14.6539 18.3422 14.9999C18.3141 15.0421 18.2844 15.0812 18.2531 15.1202L15 18.9765C16.1703 21.3546 18.6578 23.8202 21.0672 24.9937L24.8703 21.7577C24.9077 21.7263 24.9468 21.6971 24.9875 21.6702C25.3333 21.4396 25.7311 21.2988 26.145 21.2607C26.5588 21.2225 26.9757 21.288 27.3578 21.4515L27.3781 21.4609L34.7391 24.7593C35.2348 24.973 35.6481 25.3415 35.9171 25.8096C36.1861 26.2776 36.2963 26.8202 36.2313 27.3562ZM33.75 27.0437C33.75 27.0437 33.7391 27.0437 33.7328 27.0437L26.3891 23.7546L22.5844 26.9906C22.5475 27.0218 22.5089 27.051 22.4688 27.0781C22.109 27.3181 21.6931 27.4606 21.2618 27.4919C20.8305 27.5231 20.3984 27.4419 20.0078 27.2562C17.0813 25.8421 14.1641 22.9468 12.7485 20.0515C12.561 19.6638 12.4769 19.2342 12.5043 18.8044C12.5316 18.3746 12.6696 17.9592 12.9047 17.5984C12.9312 17.556 12.961 17.5158 12.9938 17.4781L16.25 13.6171L12.9688 6.27337C12.9681 6.26713 12.9681 6.26085 12.9688 6.25462C11.4535 6.45227 10.0623 7.1955 9.05566 8.34511C8.04899 9.49472 7.49592 10.9719 7.50001 12.4999C7.5058 17.8025 9.6148 22.8862 13.3643 26.6357C17.1137 30.3851 22.1975 32.4941 27.5 32.4999C29.0271 32.5052 30.5039 31.954 31.6542 30.9496C32.8044 29.9451 33.5495 28.556 33.75 27.0421V27.0437Z" fill="white"/>
</g>
</svg>
