<svg width="60" height="60" viewBox="0 0 60 60" fill="none" xmlns="http://www.w3.org/2000/svg">
<g id="Frame 12">
<g id="Black and White Collection 5">
<path id="Vector" d="M48.3798 46.66C47.3648 45.5358 46.5039 44.2814 45.8198 42.93C44.7391 40.8118 43.2453 38.9313 41.4266 37.3994C39.6078 35.8675 37.5009 34.715 35.2299 34.01C33.244 33.396 31.1658 33.1354 29.0898 33.24C30.6008 33.1537 32.0887 33.6415 33.2551 34.6059C34.4216 35.5702 35.1805 36.9397 35.3798 38.44C35.9261 41.6817 37.3628 44.7077 39.5296 47.1799C41.6963 49.6522 44.5078 51.4733 47.6498 52.44C51.2427 53.5442 55.0927 53.4847 58.6498 52.27C54.6876 51.6238 51.0646 49.6448 48.3798 46.66Z" fill="#1B998B"/>
<path id="Vector_2" d="M22.7405 33.44C23.2022 35.4684 24.0144 37.4007 25.1405 39.15C24.3182 37.8798 24.0017 36.3476 24.2535 34.8556C24.5052 33.3635 25.307 32.02 26.5005 31.09C29.0354 28.9932 30.9385 26.2339 31.9979 23.1194C33.0572 20.0049 33.2312 16.6575 32.5005 13.45C31.6664 9.7807 29.6879 6.4715 26.8505 4C28.2631 7.7761 28.3443 11.9214 27.0805 15.75C26.5967 17.1954 25.9242 18.5706 25.0805 19.84C23.7851 21.8341 22.9026 24.0678 22.4852 26.4089C22.0678 28.75 22.124 31.151 22.6505 33.47L22.7405 33.44Z" fill="#1B998B"/>
<path id="Vector_3" d="M32.29 39.5601C31.6097 40.9127 30.4432 41.9582 29.0244 42.4867C27.6057 43.0153 26.0395 42.9879 24.64 42.4101C21.5559 41.2543 18.2111 40.9789 14.9795 41.6146C11.7478 42.2503 8.7566 43.7722 6.3401 46.0101C3.5848 48.5733 1.7148 51.9454 1 55.6401C3.5639 52.5279 7.1126 50.3831 11.06 49.5601C12.543 49.2566 14.058 49.139 15.57 49.2101C17.9417 49.333 20.3139 48.9795 22.5467 48.1706C24.7794 47.3616 26.8275 46.1136 28.57 44.5001C30.095 43.0839 31.3607 41.4121 32.31 39.5601H32.29Z" fill="#1B998B"/>
</g>
</g>
</svg>
