<svg width="61" height="61" viewBox="0 0 61 61" fill="none" xmlns="http://www.w3.org/2000/svg">
<g id="CurrencyEth">
<path id="Vector" d="M52.5986 29.3422L31.9736 3.09215C31.7982 2.86891 31.5743 2.68843 31.3189 2.56432C31.0636 2.44022 30.7833 2.37573 30.4994 2.37573C30.2155 2.37573 29.9352 2.44022 29.6799 2.56432C29.4245 2.68843 29.2006 2.86891 29.0252 3.09215L8.40018 29.3422C8.14092 29.6724 8 30.0801 8 30.5C8 30.9198 8.14092 31.3275 8.40018 31.6578L29.0252 57.9078C29.2006 58.131 29.4245 58.3115 29.6799 58.4356C29.9352 58.5597 30.2155 58.6242 30.4994 58.6242C30.7833 58.6242 31.0636 58.5597 31.3189 58.4356C31.5743 58.3115 31.7982 58.131 31.9736 57.9078L52.5986 31.6578C52.8579 31.3275 52.9988 30.9198 52.9988 30.5C52.9988 30.0801 52.8579 29.6724 52.5986 29.3422ZM32.3744 9.67106L48.176 29.7804L32.3744 36.964V9.67106ZM28.6244 36.964L12.8228 29.7804L28.6244 9.67106V36.964ZM28.6244 41.082V51.3289L16.1017 35.3914L28.6244 41.082ZM32.3744 41.082L44.8971 35.389L32.3744 51.3265V41.082Z" fill="#FF780F"/>
</g>
</svg>
