<svg width="60" height="60" viewBox="0 0 60 60" fill="none" xmlns="http://www.w3.org/2000/svg">
<g id="Quotes">
<path id="Vector" d="M36.5625 46.875H50.625C51.6196 46.875 52.5734 46.4799 53.2767 45.7767C53.9799 45.0734 54.375 44.1196 54.375 43.125V28.125C54.375 27.1304 53.9799 26.1766 53.2767 25.4734C52.5734 24.7701 51.6196 24.375 50.625 24.375H36.5625V22.5C36.5625 20.5109 37.3527 18.6032 38.7592 17.1967C40.1657 15.7902 42.0734 15 44.0625 15C44.5598 15 45.0367 14.8025 45.3883 14.4508C45.74 14.0992 45.9375 13.6223 45.9375 13.125C45.9375 12.6277 45.74 12.1508 45.3883 11.7992C45.0367 11.4475 44.5598 11.25 44.0625 11.25C41.0798 11.2531 38.2201 12.4394 36.111 14.5485C34.0019 16.6576 32.8156 19.5173 32.8125 22.5V43.125C32.8125 44.1196 33.2076 45.0734 33.9109 45.7767C34.6141 46.4799 35.5679 46.875 36.5625 46.875ZM36.5625 28.125H50.625V43.125H36.5625V28.125ZM9.375 46.875H23.4375C24.4321 46.875 25.3859 46.4799 26.0891 45.7767C26.7924 45.0734 27.1875 44.1196 27.1875 43.125V28.125C27.1875 27.1304 26.7924 26.1766 26.0891 25.4734C25.3859 24.7701 24.4321 24.375 23.4375 24.375H9.375V22.5C9.375 20.5109 10.1652 18.6032 11.5717 17.1967C12.9782 15.7902 14.8859 15 16.875 15C17.3723 15 17.8492 14.8025 18.2008 14.4508C18.5525 14.0992 18.75 13.6223 18.75 13.125C18.75 12.6277 18.5525 12.1508 18.2008 11.7992C17.8492 11.4475 17.3723 11.25 16.875 11.25C13.8923 11.2531 11.0326 12.4394 8.92347 14.5485C6.81436 16.6576 5.6281 19.5173 5.625 22.5V43.125C5.625 44.1196 6.02009 45.0734 6.72335 45.7767C7.42661 46.4799 8.38044 46.875 9.375 46.875ZM9.375 28.125H23.4375V43.125H9.375V28.125Z" fill="#FF780F"/>
</g>
</svg>
