<svg width="50" height="50" viewBox="0 0 50 50" fill="none" xmlns="http://www.w3.org/2000/svg">
<g id="Smiley">
<path id="Vector" d="M25 4.6875C20.9826 4.6875 17.0554 5.87881 13.715 8.11077C10.3746 10.3427 7.77111 13.5151 6.23371 17.2267C4.6963 20.9384 4.29405 25.0225 5.07781 28.9628C5.86157 32.903 7.79615 36.5224 10.6369 39.3631C13.4777 42.2039 17.097 44.1384 21.0372 44.9222C24.9775 45.706 29.0616 45.3037 32.7733 43.7663C36.4849 42.2289 39.6573 39.6254 41.8892 36.285C44.1212 32.9446 45.3125 29.0174 45.3125 25C45.3068 19.6145 43.1649 14.4513 39.3568 10.6432C35.5487 6.83507 30.3855 4.69319 25 4.6875ZM25 42.1875C21.6006 42.1875 18.2776 41.1795 15.4511 39.2909C12.6247 37.4023 10.4217 34.718 9.12083 31.5774C7.81995 28.4368 7.47958 24.9809 8.14276 21.6469C8.80595 18.3128 10.4429 15.2503 12.8466 12.8466C15.2503 10.4429 18.3128 8.80594 21.6469 8.14275C24.9809 7.47957 28.4368 7.81994 31.5774 9.12082C34.718 10.4217 37.4023 12.6247 39.2909 15.4511C41.1795 18.2776 42.1875 21.6006 42.1875 25C42.1823 29.5568 40.3699 33.9255 37.1477 37.1477C33.9255 40.3699 29.5568 42.1823 25 42.1875ZM15.625 21.0938C15.625 20.6302 15.7625 20.1771 16.02 19.7916C16.2775 19.4062 16.6436 19.1058 17.0718 18.9284C17.5001 18.751 17.9714 18.7046 18.426 18.795C18.8806 18.8855 19.2983 19.1087 19.626 19.4365C19.9538 19.7642 20.177 20.1819 20.2675 20.6365C20.3579 21.0912 20.3115 21.5624 20.1341 21.9907C19.9567 22.4189 19.6563 22.785 19.2709 23.0425C18.8854 23.3 18.4323 23.4375 17.9688 23.4375C17.3472 23.4375 16.751 23.1906 16.3115 22.751C15.8719 22.3115 15.625 21.7154 15.625 21.0938ZM34.375 21.0938C34.375 21.5573 34.2375 22.0104 33.98 22.3959C33.7225 22.7813 33.3564 23.0817 32.9282 23.2591C32.4999 23.4365 32.0287 23.4829 31.574 23.3925C31.1194 23.302 30.7018 23.0788 30.374 22.751C30.0462 22.4233 29.823 22.0056 29.7325 21.551C29.6421 21.0963 29.6885 20.6251 29.8659 20.1968C30.0433 19.7686 30.3437 19.4025 30.7291 19.145C31.1146 18.8875 31.5677 18.75 32.0313 18.75C32.6529 18.75 33.249 18.9969 33.6885 19.4365C34.1281 19.876 34.375 20.4721 34.375 21.0938ZM34.166 30.4688C32.1563 33.9434 28.8145 35.9375 25 35.9375C21.1856 35.9375 17.8457 33.9453 15.8359 30.4688C15.7229 30.2909 15.647 30.092 15.6128 29.8841C15.5786 29.6762 15.5868 29.4635 15.6369 29.2588C15.6871 29.0541 15.7781 28.8617 15.9045 28.6931C16.0309 28.5245 16.1902 28.3832 16.3726 28.2777C16.5551 28.1723 16.757 28.1048 16.9662 28.0794C17.1753 28.054 17.3875 28.0712 17.5899 28.1299C17.7923 28.1886 17.9807 28.2876 18.1438 28.4211C18.307 28.5545 18.4414 28.7195 18.5391 28.9062C19.9981 31.4277 22.291 32.8125 25 32.8125C27.709 32.8125 30.002 31.4258 31.459 28.9062C31.6662 28.5473 32.0075 28.2853 32.4079 28.178C32.8082 28.0707 33.2348 28.1268 33.5938 28.334C33.9527 28.5412 34.2147 28.8825 34.322 29.2828C34.4293 29.6832 34.3732 30.1098 34.166 30.4688Z" fill="#FF780F"/>
</g>
</svg>
